<svg width="30" height="31" viewBox="0 0 30 31" fill="none" xmlns="http://www.w3.org/2000/svg">
<path d="M14.2655 0.0595635C14.1407 0.0898696 13.2951 0.41657 12.3865 0.78691C11.478 1.15664 9.95721 1.78095 9.00741 2.17432C8.05701 2.5677 6.65263 3.14836 5.88588 3.46476C5.11914 3.78116 3.61899 4.40122 2.55221 4.84247C1.48543 5.28373 0.510184 5.6959 0.385323 5.75833C0.238641 5.83167 0.125902 5.94744 0.0671085 6.08442C0.017406 6.2014 -0.0110809 6.34445 0.00407217 6.40263C0.0192252 6.46082 0.0828682 6.5772 0.145905 6.66024C0.223488 6.76328 0.662321 6.98694 1.51271 7.35728C2.27395 7.68857 2.7664 8.4396 2.76675 9.26981L2.76766 11.416C2.76786 11.9097 2.4445 12.308 2.1746 12.7215C2.09762 12.8384 2.01882 13.0427 1.99882 13.1761C1.97882 13.3094 1.99155 13.5137 2.02731 13.6306C2.06368 13.7476 2.15338 13.9246 2.22733 14.0246C2.36128 14.2052 2.36128 14.2083 2.25218 14.4792C2.19157 14.6295 2.07762 14.9835 2.00003 15.2672C1.92184 15.5508 1.81638 16.103 1.76546 16.4946C1.71455 16.8861 1.67273 17.4044 1.67212 17.6462C1.67152 17.9214 1.7 18.1141 1.74789 18.1626C1.80486 18.2196 2.15338 18.2396 3.09772 18.2408C4.21723 18.2426 4.38149 18.2305 4.46149 18.1402C4.53726 18.0547 4.54514 17.9068 4.50938 17.2437C4.48635 16.8067 4.42331 16.2036 4.36997 15.9036C4.31663 15.6036 4.1845 15.0993 4.07661 14.7823C3.95248 14.4183 4.04879 14.0385 4.17367 13.6749C4.21588 13.5519 4.21654 13.4514 4.20814 13.293C4.1942 13.0239 4.14692 12.8621 4.03297 12.6869C3.9475 12.556 3.77658 12.4008 3.65414 12.3426C3.51789 12.2778 3.43108 12.1397 3.43113 11.9888C3.43221 9.088 3.45237 8.23553 3.47655 8.23494C3.5014 8.23434 4.02024 8.44527 4.62879 8.70469C5.30009 8.99034 5.73597 9.64924 5.73812 10.3788C5.74555 12.8955 5.76383 13.2013 5.81375 13.1227C5.85315 13.0597 6.02226 12.8154 6.18894 12.5796C6.35563 12.3438 6.68293 11.9899 6.91629 11.7941C7.14965 11.5977 7.58606 11.3183 7.88609 11.1722C8.18612 11.0267 8.66314 10.8522 8.9468 10.7843C9.31168 10.6976 9.6699 10.6613 10.1742 10.6613C10.5658 10.6606 11.0707 10.6994 11.2955 10.7473C11.5204 10.7946 12.0998 10.9831 12.5835 11.1668C13.0672 11.3498 13.994 11.7092 14.6443 11.965C15.2947 12.2214 16.2627 12.6021 16.7961 12.8118C17.3295 13.0215 18.7884 13.5949 20.0388 14.0871C21.2887 14.5786 22.4755 15.0459 22.6755 15.1247C22.8755 15.2035 23.0731 15.2684 23.1149 15.2678C23.1743 15.2672 23.1907 14.5938 23.1895 12.1002C23.1887 10.1765 24.3274 8.43502 26.0899 7.66409C26.2667 7.58673 26.4422 7.50998 26.6153 7.43426C27.8821 6.87965 28.7409 6.46931 28.844 6.3693C28.9694 6.24686 29.0119 6.14806 29.0107 5.97835C29.0101 5.8153 28.9622 5.70074 28.8428 5.57285C28.727 5.4492 28.3524 5.26191 27.6154 4.96006C27.0317 4.72064 25.1769 3.95208 23.4937 3.2514C21.8105 2.55073 19.417 1.5585 18.175 1.04572C16.9331 0.533551 15.8014 0.087445 15.6596 0.0547144C15.5178 0.0225899 15.1971 -0.00226106 14.9474 0.000163433C14.6971 0.00319405 14.3904 0.0298635 14.2655 0.0595635Z" fill="#0C1338"/>
<path d="M8.69272 11.4384C8.4731 11.4963 8.17425 11.5977 8.02802 11.6646C7.88179 11.731 7.63026 11.8818 7.46967 11.9996C7.30908 12.1175 7.05755 12.3443 6.91132 12.503C6.76509 12.6623 6.5577 12.9586 6.45081 13.162C6.34393 13.3654 6.20035 13.7111 6.13176 13.9298C6.04928 14.1938 6.0074 14.477 6.00756 14.7535C6.0144 27.2158 6.02211 27.7414 6.1073 28.0811C6.15835 28.2856 6.27852 28.6201 6.37424 28.8245C6.46996 29.029 6.67734 29.3566 6.83581 29.552C6.99427 29.748 7.27983 30.0326 7.46967 30.185C7.65951 30.3374 7.98282 30.5392 8.18755 30.6337C8.39228 30.7287 8.70336 30.8493 8.87884 30.9024C9.12345 30.9767 9.37763 30.9995 9.96895 31.0001C10.5353 31.0011 10.8315 30.9767 11.0857 30.9087C11.2819 30.8567 12.0981 30.4792 12.9734 30.0358C13.8216 29.6062 16.8367 28.0902 19.6736 26.6671C23.1157 24.9408 24.9466 23.9935 25.1773 23.8204C25.3677 23.678 25.6373 23.4194 25.7772 23.2458C25.917 23.0722 26.1239 22.7514 26.2377 22.5321C26.3515 22.3134 26.5004 21.9666 26.5684 21.7622C26.678 21.4345 26.6929 21.2901 26.6929 20.5409C26.6929 19.7985 26.6769 19.6408 26.5684 19.293C26.4998 19.0742 26.3504 18.7158 26.2361 18.4965C26.1218 18.2777 25.9149 17.9575 25.7756 17.7849C25.6368 17.6129 25.3677 17.3559 25.1773 17.2141C24.9067 17.0118 24.5669 16.852 23.6086 16.4739C22.936 16.2089 22.0745 15.8707 21.6943 15.7225C21.3141 15.5744 19.8305 14.9903 18.3974 14.4247C16.9643 13.8587 15.3132 13.2066 14.7282 12.9756C14.1433 12.7446 13.0787 12.3252 12.3619 12.0437C11.6451 11.7623 10.8676 11.4867 10.6337 11.4304C10.3481 11.3619 10.0248 11.3295 9.64989 11.3311C9.27128 11.3327 8.96286 11.3677 8.69272 11.4384Z" fill="url(#paint0_linear_1129_335)"/>
<path d="M12.1865 16.6395C12.2803 16.5422 12.4404 16.4179 12.5421 16.3631C12.6646 16.2977 12.8405 16.2626 13.0589 16.261C13.2825 16.2594 13.4547 16.2919 13.5888 16.3594C13.698 16.4147 14.193 16.698 14.6885 16.9888C15.184 17.279 16.1856 17.8706 16.9143 18.3023C17.6431 18.7344 18.5254 19.2564 18.8752 19.4627C19.225 19.6689 19.579 19.8996 19.6617 19.9751C19.7444 20.0506 19.8625 20.2085 19.9235 20.3254C20.0056 20.4822 20.0348 20.6353 20.0348 20.9101C20.0348 21.1849 20.0056 21.338 19.9235 21.4949C19.8625 21.6118 19.7444 21.7707 19.6617 21.8483C19.579 21.926 18.8312 22.4022 18.0008 22.9067C17.1703 23.4112 15.8226 24.2271 15.0065 24.7209C14.1739 25.2238 13.441 25.6315 13.3371 25.6496C13.2353 25.6671 13.0324 25.6682 12.8866 25.6522C12.7133 25.6331 12.548 25.5698 12.4096 25.4699C12.2931 25.3854 12.1431 25.2344 12.0763 25.1334C12.0095 25.0324 11.9321 24.8661 11.9041 24.764C11.8744 24.655 11.8532 23.0725 11.8521 20.9367C11.8511 17.7675 11.8617 17.2646 11.9337 17.0563C11.9793 16.9244 12.0933 16.7373 12.1865 16.6395Z" fill="#FEFDFD"/>
<defs>
<linearGradient id="paint0_linear_1129_335" x1="4.0398" y1="21.1515" x2="28.5806" y2="21.1515" gradientUnits="userSpaceOnUse">
<stop stop-color="#05A9A7"/>
<stop offset="1" stop-color="#08C2AD"/>
</linearGradient>
</defs>
</svg>
