<svg width="30" height="33" viewBox="0 0 30 33" fill="none" xmlns="http://www.w3.org/2000/svg">
<path d="M14.752 0.0615949C14.6229 0.0929346 13.7485 0.430776 12.8089 0.813747C11.8694 1.19609 10.2968 1.84169 9.31458 2.24848C8.33177 2.65527 6.87949 3.25574 6.0866 3.58292C5.29371 3.91011 3.7424 4.55132 2.63924 5.00763C1.53609 5.46393 0.527582 5.89015 0.398463 5.95471C0.246779 6.03055 0.130196 6.15027 0.069397 6.29193C0.0179996 6.4129 -0.0114588 6.56082 0.00421104 6.62099C0.0198808 6.68117 0.0856942 6.80151 0.15088 6.88738C0.231109 6.99394 0.684907 7.22522 1.5643 7.60819C2.3515 7.95079 2.86074 8.72743 2.8611 9.58595L2.86204 11.8053C2.86225 12.3159 2.52787 12.7278 2.24875 13.1553C2.16915 13.2763 2.08767 13.4875 2.06698 13.6254C2.0463 13.7633 2.05946 13.9745 2.09644 14.0955C2.13405 14.2165 2.22682 14.3995 2.30328 14.5029C2.44181 14.6897 2.44181 14.6928 2.32898 14.973C2.2663 15.1285 2.14847 15.4945 2.06824 15.7879C1.98738 16.0812 1.87832 16.6522 1.82567 17.0571C1.77302 17.462 1.72977 17.9979 1.72914 18.248C1.72852 18.5326 1.75798 18.7319 1.80749 18.782C1.86641 18.841 2.22682 18.8617 3.20336 18.8629C4.36104 18.8648 4.5309 18.8522 4.61364 18.7589C4.69199 18.6705 4.70014 18.5175 4.66316 17.8318C4.63934 17.3799 4.57415 16.7563 4.51899 16.446C4.46384 16.1357 4.3272 15.6142 4.21563 15.2864C4.08727 14.9101 4.18687 14.5173 4.316 14.1412C4.35965 14.0141 4.36033 13.9102 4.35164 13.7464C4.33723 13.4681 4.28834 13.3007 4.1705 13.1196C4.08212 12.9842 3.90537 12.8237 3.77875 12.7636C3.63786 12.6966 3.54808 12.5537 3.54814 12.3977C3.54925 9.39794 3.5701 8.5164 3.5951 8.51579C3.6208 8.51517 4.15734 8.73329 4.78664 9.00156C5.48083 9.29695 5.93157 9.97832 5.9338 10.7328C5.94148 13.3353 5.96038 13.6515 6.01201 13.5703C6.05276 13.5051 6.22763 13.2525 6.4 13.0086C6.57237 12.7648 6.91083 12.3988 7.15215 12.1963C7.39346 11.9932 7.84475 11.7043 8.15502 11.5532C8.46528 11.4028 8.95856 11.2223 9.2519 11.1521C9.62923 11.0625 9.99967 11.0248 10.5212 11.0248C10.9261 11.0242 11.4482 11.0643 11.6807 11.1139C11.9133 11.1627 12.5125 11.3577 13.0127 11.5476C13.5128 11.7369 14.4712 12.1086 15.1437 12.3731C15.8163 12.6382 16.8173 13.0318 17.3689 13.2487C17.9204 13.4656 19.4291 14.0585 20.7222 14.5675C22.0146 15.0758 23.2419 15.5591 23.4487 15.6406C23.6556 15.722 23.8599 15.7891 23.9032 15.7885C23.9646 15.7879 23.9815 15.0915 23.9803 12.5129C23.9795 10.5236 25.157 8.72269 26.9796 7.92546C27.1624 7.84547 27.3439 7.7661 27.5229 7.6878C28.8329 7.11428 29.7211 6.68994 29.8276 6.58652C29.9574 6.45991 30.0012 6.35774 30 6.18224C29.9993 6.01363 29.9498 5.89517 29.8264 5.76291C29.7066 5.63505 29.3193 5.44137 28.5571 5.12922C27.9535 4.88164 26.0355 4.08686 24.2949 3.36229C22.5543 2.63772 20.0791 1.61166 18.7948 1.08139C17.5105 0.551748 16.3403 0.0904273 16.1936 0.0565804C16.047 0.0233604 15.7154 -0.00233817 15.4571 0.000169007C15.1983 0.00330298 14.8811 0.030882 14.752 0.0615949Z" fill="#FEFDFD"/>
<path d="M8.98889 11.8283C8.76178 11.8881 8.45274 11.993 8.30152 12.0622C8.1503 12.1308 7.8902 12.2868 7.72413 12.4087C7.55806 12.5306 7.29796 12.7651 7.14674 12.9292C6.99552 13.094 6.78106 13.4004 6.67053 13.6107C6.56 13.821 6.41153 14.1785 6.34059 14.4047C6.2553 14.6777 6.212 14.9705 6.21215 15.2565C6.21923 28.1437 6.2272 28.6873 6.31529 29.0386C6.36809 29.25 6.49236 29.596 6.59134 29.8074C6.69032 30.0188 6.90478 30.3576 7.06865 30.5597C7.23252 30.7623 7.52781 31.0566 7.72413 31.2142C7.92044 31.3718 8.25478 31.5805 8.46649 31.6782C8.6782 31.7765 8.99989 31.9012 9.18135 31.9561C9.43431 32.0329 9.69716 32.0566 10.3086 32.0571C10.8943 32.0582 11.2006 32.0329 11.4634 31.9627C11.6663 31.9088 12.5104 31.5184 13.4156 31.0599C14.2926 30.6157 17.4105 29.048 20.3442 27.5763C23.9037 25.7912 25.797 24.8115 26.0357 24.6325C26.2325 24.4854 26.5113 24.2179 26.6559 24.0384C26.8006 23.8588 27.0145 23.5272 27.1322 23.3004C27.2498 23.0741 27.4038 22.7156 27.4742 22.5042C27.5875 22.1654 27.6029 22.016 27.6029 21.2412C27.6029 20.4735 27.5864 20.3104 27.4742 19.9508C27.4033 19.7245 27.2487 19.3539 27.1305 19.1271C27.0123 18.9009 26.7984 18.5697 26.6543 18.3913C26.5108 18.2134 26.2325 17.9476 26.0357 17.801C25.7558 17.5918 25.4044 17.4265 24.4135 17.0355C23.7179 16.7615 22.827 16.4117 22.4338 16.2585C22.0407 16.1053 20.5065 15.5013 19.0245 14.9165C17.5425 14.3311 15.8351 13.6568 15.2302 13.418C14.6253 13.1791 13.5244 12.7453 12.7832 12.4543C12.0419 12.1632 11.238 11.8782 10.996 11.82C10.7007 11.7492 10.3664 11.7157 9.9787 11.7173C9.58718 11.719 9.26824 11.7552 8.98889 11.8283Z" fill="url(#paint0_linear_1122_1618)"/>
<path d="M12.6017 17.2069C12.6987 17.1063 12.8643 16.9776 12.9695 16.921C13.0961 16.8534 13.278 16.8171 13.5038 16.8155C13.7351 16.8138 13.9132 16.8474 14.0519 16.9172C14.1647 16.9743 14.6766 17.2673 15.189 17.568C15.7014 17.8682 16.7372 18.48 17.4908 18.9263C18.2443 19.3732 19.1568 19.913 19.5185 20.1263C19.8802 20.3396 20.2463 20.5782 20.3318 20.6562C20.4173 20.7343 20.5395 20.8975 20.6026 21.0185C20.6875 21.1806 20.7176 21.3389 20.7176 21.6231C20.7176 21.9073 20.6875 22.0656 20.6026 22.2278C20.5395 22.3487 20.4173 22.5131 20.3318 22.5933C20.2463 22.6736 19.473 23.1661 18.6143 23.6878C17.7555 24.2094 16.3618 25.0532 15.5179 25.5639C14.6569 26.0839 13.8989 26.5055 13.7915 26.5242C13.6863 26.5424 13.4764 26.5435 13.3257 26.527C13.1465 26.5072 12.9755 26.4418 12.8325 26.3384C12.7119 26.251 12.5568 26.0949 12.4877 25.9905C12.4187 25.886 12.3387 25.714 12.3096 25.6084C12.2789 25.4957 12.257 23.8593 12.2559 21.6506C12.2548 18.3733 12.2658 17.8533 12.3403 17.6378C12.3875 17.5015 12.5053 17.308 12.6017 17.2069Z" fill="#FEFDFD"/>
<defs>
<linearGradient id="paint0_linear_1122_1618" x1="4.1773" y1="21.8727" x2="29.555" y2="21.8727" gradientUnits="userSpaceOnUse">
<stop stop-color="#05A9A7"/>
<stop offset="1" stop-color="#08C2AD"/>
</linearGradient>
</defs>
</svg>
